<svg width="40" height="40" viewBox="0 0 40 40" fill="none" xmlns="http://www.w3.org/2000/svg">
<path d="M20.0017 3.33331C10.7933 3.33331 3.335 10.7916 3.335 20C3.33198 23.4988 4.43126 26.9097 6.47675 29.7483C8.52225 32.5869 11.41 34.709 14.73 35.8133C15.5633 35.9583 15.8767 35.4583 15.8767 35.02C15.8767 34.625 15.855 33.3133 15.855 31.9166C11.6683 32.6883 10.585 30.8966 10.2517 29.9583C10.0633 29.4783 9.25167 28 8.54333 27.6033C7.96 27.2916 7.12667 26.52 8.52167 26.5C9.835 26.4783 10.7717 27.7083 11.085 28.2083C12.585 30.7283 14.98 30.02 15.9383 29.5833C16.085 28.5 16.5217 27.7716 17.0017 27.355C13.2933 26.9383 9.41833 25.5 9.41833 19.125C9.41833 17.3116 10.0633 15.8133 11.1267 14.6466C10.96 14.23 10.3767 12.5216 11.2933 10.23C11.2933 10.23 12.6883 9.79165 15.8767 11.9366C17.2336 11.5611 18.6354 11.3721 20.0433 11.375C21.46 11.375 22.8767 11.5616 24.21 11.9366C27.3983 9.76998 28.7933 10.23 28.7933 10.23C29.71 12.5216 29.1267 14.23 28.96 14.6466C30.0217 15.8133 30.6683 17.2916 30.6683 19.125C30.6683 25.5216 26.7733 26.9383 23.065 27.355C23.6683 27.875 24.19 28.875 24.19 30.4383C24.19 32.6666 24.1683 34.4583 24.1683 35.0216C24.1683 35.4583 24.4817 35.9783 25.315 35.8116C28.6225 34.6935 31.4964 32.5668 33.5326 29.7306C35.5688 26.8944 36.6648 23.4914 36.6667 20C36.6667 10.7916 29.2083 3.33331 20 3.33331" fill="black"/>
</svg>
