<svg width="380" height="115" viewBox="0 0 380 115" fill="none" xmlns="http://www.w3.org/2000/svg">
<rect y="22" width="380" height="71" rx="5" fill="#FFD500" fill-opacity="0.69"/>
<path d="M45.1667 22L32.2032 34.9635L29.6108 32.3712L39.982 22L29.6108 11.6288L32.2032 9.0365L45.1667 22ZM10.018 22L20.3892 32.3712L17.7968 34.9635L4.83334 22L17.7968 9.0365L20.3892 11.6288L10.018 22Z" fill="black"/>
<path d="M375 93L364.629 103.371L362.037 100.779L369.815 93L362.037 85.2212L364.629 82.6288L375 93ZM336.185 93L343.964 100.779L341.371 103.371L331 93L341.371 82.6288L343.962 85.2212L336.185 93ZM348.945 109.5H345.043L357.055 76.5H360.957L348.945 109.5Z" fill="black"/>
</svg>
