<svg width="28" height="28" viewBox="0 0 28 28" fill="none" xmlns="http://www.w3.org/2000/svg">
<path d="M10 7.5C9.99956 9.25008 10.4584 10.9696 11.3307 12.4868C12.203 14.004 13.4582 15.2657 14.9709 16.1459C16.4835 17.026 18.2007 17.4938 19.9507 17.5024C21.7008 17.511 23.4225 17.0602 24.9438 16.195C24.3425 22.5375 19 27.5 12.5 27.5C5.59625 27.5 0 21.9037 0 15C0 8.5 4.9625 3.1575 11.305 2.55625C10.4468 4.06236 9.99693 5.76654 10 7.5ZM2.5 15C2.5 17.6522 3.55357 20.1957 5.42893 22.0711C7.3043 23.9464 9.84784 25 12.5 25C14.267 25.0007 16.0026 24.5331 17.5302 23.6449C19.0577 22.7568 20.3227 21.4797 21.1963 19.9438C20.8004 19.9813 20.4017 20 20 20C13.0963 20 7.5 14.4037 7.5 7.5C7.5 7.09917 7.51875 6.70042 7.55625 6.30375C6.02029 7.17731 4.74322 8.44226 3.85505 9.96982C2.96689 11.4974 2.49934 13.233 2.5 15ZM20.205 2.86375L21.25 3.125V4.375L20.205 4.63625C19.7655 4.74617 19.3641 4.97344 19.0438 5.29379C18.7234 5.61413 18.4962 6.0155 18.3862 6.455L18.125 7.5H16.875L16.6138 6.455C16.5038 6.0155 16.2766 5.61413 15.9562 5.29379C15.6359 4.97344 15.2345 4.74617 14.795 4.63625L13.75 4.375V3.125L14.795 2.86375C15.2343 2.75363 15.6354 2.52627 15.9555 2.20594C16.2756 1.88561 16.5027 1.48434 16.6125 1.045L16.875 0H18.125L18.3862 1.045C18.4962 1.4845 18.7234 1.88587 19.0438 2.20621C19.3641 2.52656 19.7655 2.75383 20.205 2.86375ZM26.455 9.11375L27.5 9.375V10.625L26.455 10.8862C26.0155 10.9962 25.6141 11.2234 25.2938 11.5438C24.9734 11.8641 24.7462 12.2655 24.6362 12.705L24.375 13.75H23.125L22.8638 12.705C22.7538 12.2655 22.5266 11.8641 22.2062 11.5438C21.8859 11.2234 21.4845 10.9962 21.045 10.8862L20 10.625V9.375L21.045 9.11375C21.4845 9.00383 21.8859 8.77656 22.2062 8.45621C22.5266 8.13587 22.7538 7.7345 22.8638 7.295L23.125 6.25H24.375L24.6362 7.295C24.7462 7.7345 24.9734 8.13587 25.2938 8.45621C25.6141 8.77656 26.0155 9.00383 26.455 9.11375Z" fill="black"/>
</svg>
